<svg xmlns="http://www.w3.org/2000/svg" xmlns:xlink="http://www.w3.org/1999/xlink" width="201" height="59" viewBox="0 0 201 59">
    <defs>
        <path id="a" d="M.068.094h29.82V59H.068z"/>
        <path id="c" d="M0 59h201V0H0z"/>
    </defs>
    <g fill="none" fill-rule="evenodd">
        <path fill="#FF4A4A" d="M0 29.552c0-7.008 12.69-9.766 20.38-13.868C31.875 9.552 41.835-.41 46.585 4.164c5.68 5.473-7.575 18.28-7.575 25.336 0 7.055 13.256 19.863 7.575 25.335-4.75 4.575-14.71-5.386-26.205-11.52C12.69 39.214 0 36.457 0 29.449v.104z"/>
        <g transform="translate(7)">
            <mask id="b" fill="#fff">
                <use xlink:href="#a"/>
            </mask>
            <path fill="#FFF" d="M.068.094V59l29.82-29.453L.068.094zm2.684 6.4l23.34 23.053L2.753 52.6V6.495z" mask="url(#b)"/>
        </g>
        <path fill="#FFF" d="M75.838 35l-4.958-6.238-1.293 1.223V35H67V21h2.587v6.096L75.767 21h3.071l-6.108 6.132L79 35zM104 36c-3.457 0-6-1.35-6-4.688V21h2.634v10.069c0 1.65 1.208 2.606 3.421 2.606 1.92 0 3.31-.938 3.31-2.588V21H110v10.462C110 34.5 107.512 36 104 36M141.033 35l-6.441-10.243V35H132V21h3.192l6.216 9.942V21H144v14zM171.452 24.544l-.362-1.187-.361 1.205-1.9 4.838h4.396l-1.773-4.856zM166.677 35H164l5.499-14h3.274L178 35h-2.713l-1.266-3.402h-6.024L166.677 35z"/>
        <mask id="d" fill="#fff">
            <use xlink:href="#c"/>
        </mask>
        <path fill="#FFF" d="M198 35h3V21h-3z" mask="url(#d)"/>
    </g>
</svg>
